<svg width="148" height="53" viewBox="0 0 148 53" fill="none" xmlns="http://www.w3.org/2000/svg">
<path d="M16.8047 27.3281C16.8047 28.4062 16.5781 29.3594 16.125 30.1875C15.6719 31.0156 15.0859 31.7109 14.3672 32.2734C13.6641 32.8359 12.8594 33.2578 11.9531 33.5391C11.0625 33.8359 10.1719 33.9844 9.28125 33.9844C8.57812 33.9844 7.85156 33.9062 7.10156 33.75C6.35156 33.5938 5.66406 33.3281 5.03906 32.9531C4.41406 32.5781 3.89844 32.0781 3.49219 31.4531C3.08594 30.8281 2.88281 30.0469 2.88281 29.1094C2.88281 28.3906 3.00781 27.75 3.25781 27.1875C3.52344 26.625 3.86719 26.1328 4.28906 25.7109C4.72656 25.2891 5.22656 24.9375 5.78906 24.6562C6.36719 24.3594 6.96875 24.1406 7.59375 24L7.73438 24.375C7 24.7969 6.38281 25.4141 5.88281 26.2266C5.38281 27.0391 5.13281 27.9453 5.13281 28.9453C5.13281 29.5859 5.23438 30.1797 5.4375 30.7266C5.64062 31.2578 5.92188 31.7188 6.28125 32.1094C6.64062 32.5 7.07031 32.8047 7.57031 33.0234C8.08594 33.2422 8.64844 33.3516 9.25781 33.3516C10.0547 33.3516 10.7422 33.1875 11.3203 32.8594C11.8984 32.5312 12.375 32.1094 12.75 31.5938C13.1406 31.0781 13.4219 30.5156 13.5938 29.9062C13.7812 29.2812 13.875 28.6719 13.875 28.0781C13.875 26.9062 13.7109 25.8828 13.3828 25.0078C13.0547 24.1172 12.5938 23.3672 12 22.7578C11.4062 22.1484 10.6875 21.6719 9.84375 21.3281C9 20.9844 8.05469 20.7578 7.00781 20.6484V19.6875C7.96094 19.5469 8.86719 19.2891 9.72656 18.9141C10.5859 18.5391 11.3359 18.0312 11.9766 17.3906C12.6328 16.75 13.1484 15.9766 13.5234 15.0703C13.9141 14.1641 14.1094 13.125 14.1094 11.9531C14.1094 11.0156 13.9531 10.0703 13.6406 9.11719C13.3438 8.16406 12.9141 7.30469 12.3516 6.53906C11.7891 5.75781 11.1016 5.125 10.2891 4.64062C9.49219 4.14063 8.59375 3.89062 7.59375 3.89062C6.9375 3.89062 6.30469 4.01562 5.69531 4.26562C5.10156 4.5 4.57031 4.83594 4.10156 5.27344C3.64844 5.69531 3.28125 6.19531 3 6.77344C2.73438 7.35156 2.60156 7.97656 2.60156 8.64844C2.60156 9.16406 2.65625 9.63281 2.76562 10.0547C2.89062 10.4766 3.05469 10.8828 3.25781 11.2734C3.47656 11.6641 3.72656 12.0391 4.00781 12.3984C4.28906 12.7578 4.58594 13.1328 4.89844 13.5234C5.07031 13.7422 5.21875 13.9844 5.34375 14.25C5.46875 14.5 5.53125 14.7969 5.53125 15.1406C5.53125 15.6094 5.375 16.0391 5.0625 16.4297C4.75 16.8203 4.32812 17.0156 3.79688 17.0156C3.1875 17.0156 2.6875 16.7969 2.29688 16.3594C1.92188 15.9219 1.61719 15.3984 1.38281 14.7891C1.16406 14.1797 1.01562 13.5391 0.9375 12.8672C0.859375 12.1953 0.820312 11.625 0.820312 11.1562C0.820312 9.95312 1.00781 8.77344 1.38281 7.61719C1.77344 6.46094 2.32812 5.42969 3.04688 4.52344C3.78125 3.61719 4.66406 2.89062 5.69531 2.34375C6.74219 1.78125 7.91406 1.5 9.21094 1.5C10.3828 1.5 11.4688 1.75781 12.4688 2.27344C13.4688 2.78906 14.3359 3.46875 15.0703 4.3125C15.8047 5.15625 16.3828 6.125 16.8047 7.21875C17.2266 8.29688 17.4375 9.41406 17.4375 10.5703C17.4375 11.6797 17.25 12.7266 16.875 13.7109C16.5 14.6797 15.9766 15.5781 15.3047 16.4062C14.6328 17.2188 13.8281 17.9375 12.8906 18.5625C11.9531 19.1875 10.9141 19.6953 9.77344 20.0859C10.6328 20.2891 11.4844 20.5938 12.3281 21C13.1719 21.4062 13.9219 21.9141 14.5781 22.5234C15.25 23.1328 15.7891 23.8438 16.1953 24.6562C16.6016 25.4531 16.8047 26.3438 16.8047 27.3281ZM45.9609 22.1953C45.9609 23.7734 45.7969 25.3594 45.4688 26.9531C45.1406 28.5312 44.6562 30.0469 44.0156 31.5C43.375 32.9375 42.5859 34.2734 41.6484 35.5078C40.7109 36.7578 39.6328 37.8359 38.4141 38.7422C37.2109 39.6641 35.8594 40.3828 34.3594 40.8984C32.875 41.4297 31.2656 41.6953 29.5312 41.6953C27.9844 41.6953 26.5938 41.4844 25.3594 41.0625C24.1406 40.6562 23.1016 40.0469 22.2422 39.2344C21.3984 38.4219 20.75 37.4219 20.2969 36.2344C19.8438 35.0469 19.6172 33.6797 19.6172 32.1328C19.6172 31.5859 19.6406 31.0391 19.6875 30.4922C19.7344 29.9453 19.8203 29.4062 19.9453 28.875L20.3203 28.8281V29.1562C20.3047 30.5781 20.5 31.9609 20.9062 33.3047C21.3281 34.6641 21.9453 35.8672 22.7578 36.9141C23.5859 37.9766 24.6094 38.8281 25.8281 39.4688C27.0625 40.1094 28.4766 40.4297 30.0703 40.4297C31.6484 40.4297 33.0469 40.1172 34.2656 39.4922C35.5 38.8828 36.5703 38.0625 37.4766 37.0312C38.3828 36 39.1406 34.8125 39.75 33.4688C40.375 32.1406 40.875 30.7578 41.25 29.3203C41.625 27.8672 41.8906 26.4297 42.0469 25.0078C42.2188 23.5703 42.3047 22.2344 42.3047 21C42.3047 19.7812 42.1875 18.4531 41.9531 17.0156C41.7344 15.5625 41.3906 14.1094 40.9219 12.6562C40.4688 11.2031 39.8828 9.79688 39.1641 8.4375C38.4609 7.07812 37.625 5.875 36.6562 4.82812C35.6875 3.78125 34.5781 2.94531 33.3281 2.32031C32.0938 1.67969 30.7188 1.35938 29.2031 1.35938C28.625 1.35938 28.0312 1.46094 27.4219 1.66406C26.8125 1.85156 26.2109 2.11719 25.6172 2.46094C25.0234 2.78906 24.4609 3.17969 23.9297 3.63281C23.4141 4.08594 22.9609 4.58594 22.5703 5.13281C22.1797 5.66406 21.8672 6.22656 21.6328 6.82031C21.3984 7.39844 21.2812 7.98438 21.2812 8.57812C21.2812 9.01562 21.3359 9.40625 21.4453 9.75C21.5547 10.0938 21.6719 10.4141 21.7969 10.7109C21.9375 10.9922 22.0625 11.2656 22.1719 11.5312C22.2812 11.7812 22.3359 12.0391 22.3359 12.3047C22.3359 12.7578 22.1797 13.1406 21.8672 13.4531C21.5703 13.75 21.2031 13.8984 20.7656 13.8984C20.4062 13.8984 20.1172 13.8203 19.8984 13.6641C19.6797 13.5078 19.5078 13.3125 19.3828 13.0781C19.2734 12.8281 19.1953 12.5547 19.1484 12.2578C19.1016 11.9609 19.0781 11.6719 19.0781 11.3906C19.0781 10.7188 19.1719 10.0469 19.3594 9.375C19.5469 8.70312 19.7969 8.05469 20.1094 7.42969C20.4219 6.78906 20.7812 6.1875 21.1875 5.625C21.5938 5.04687 22.0078 4.50781 22.4297 4.00781C23.4609 2.83594 24.625 1.91406 25.9219 1.24219C27.2188 0.554688 28.6641 0.210938 30.2578 0.210938C32.2109 0.210938 33.9531 0.53125 35.4844 1.17188C37.0312 1.8125 38.3828 2.6875 39.5391 3.79688C40.7109 4.89063 41.7031 6.17187 42.5156 7.64062C43.3281 9.09375 43.9844 10.6328 44.4844 12.2578C45 13.8828 45.375 15.5469 45.6094 17.25C45.8438 18.9531 45.9609 20.6016 45.9609 22.1953ZM30.0703 6.44531C30.0703 6.60156 30.0469 6.75 30 6.89062C29.9688 7.01562 29.9297 7.14063 29.8828 7.26562C29.6172 7.96875 29.3125 8.64844 28.9688 9.30469C28.6406 9.94531 28.3828 10.625 28.1953 11.3438C27.4922 14.0312 26.9844 16.5156 26.6719 18.7969C26.3594 21.0781 26.1641 23.2578 26.0859 25.3359C26.0234 27.3984 26.0391 29.4219 26.1328 31.4062C26.2266 33.375 26.3359 35.3906 26.4609 37.4531L26.0859 37.6172C25.6797 36.3672 25.3359 35.0625 25.0547 33.7031C24.7891 32.3594 24.5703 30.9922 24.3984 29.6016C24.2422 28.2109 24.1328 26.8203 24.0703 25.4297C24.0078 24.0391 23.9766 22.6875 23.9766 21.375C23.9766 20.7656 23.9844 20.0234 24 19.1484C24.0312 18.2734 24.0859 17.3359 24.1641 16.3359C24.2422 15.3359 24.3594 14.3203 24.5156 13.2891C24.6719 12.2578 24.8828 11.2891 25.1484 10.3828C25.4297 9.47656 25.7656 8.67188 26.1562 7.96875C26.5625 7.26562 27.0547 6.74219 27.6328 6.39844C27.8984 6.25781 28.1719 6.125 28.4531 6C28.7344 5.85938 29.0312 5.78906 29.3438 5.78906C29.8281 5.78906 30.0703 6.00781 30.0703 6.44531ZM85.6875 7.26562C85.6875 8.54688 85.3672 9.74219 84.7266 10.8516C84.1016 11.9609 83.2812 12.9219 82.2656 13.7344C81.2656 14.5469 80.1484 15.1875 78.9141 15.6562C77.6797 16.1094 76.4609 16.3203 75.2578 16.2891H74.8828V15.8672C75.9141 15.6484 76.8828 15.2734 77.7891 14.7422C78.7109 14.1953 79.5078 13.5312 80.1797 12.75C80.8672 11.9688 81.4062 11.0938 81.7969 10.125C82.2031 9.15625 82.4062 8.14062 82.4062 7.07812C82.4062 6.375 82.3203 5.71094 82.1484 5.08594C81.9766 4.46094 81.7109 3.92187 81.3516 3.46875C80.9922 3.01563 80.5312 2.65625 79.9688 2.39062C79.4219 2.125 78.7656 1.99219 78 1.99219C76.9062 1.99219 75.7969 2.15625 74.6719 2.48438C73.5469 2.8125 72.4609 3.27344 71.4141 3.86719C70.3672 4.46094 69.3828 5.16406 68.4609 5.97656C67.5547 6.78906 66.7578 7.67969 66.0703 8.64844C65.3984 9.61719 64.8672 10.6484 64.4766 11.7422C64.0859 12.8359 63.8906 13.9531 63.8906 15.0938C63.8906 16.3125 64.0625 17.3672 64.4062 18.2578C64.7656 19.1328 65.2422 19.9062 65.8359 20.5781C66.4453 21.2344 67.1484 21.7969 67.9453 22.2656C68.7422 22.7344 69.5938 23.1641 70.5 23.5547C71.4062 23.9297 72.3281 24.2812 73.2656 24.6094C74.2188 24.9375 75.1484 25.2891 76.0547 25.6641C76.9609 26.0391 77.8125 26.4609 78.6094 26.9297C79.4062 27.3828 80.1016 27.9297 80.6953 28.5703C81.3047 29.1953 81.7812 29.9453 82.125 30.8203C82.4844 31.6797 82.6641 32.6953 82.6641 33.8672C82.6641 35.1484 82.3984 36.2891 81.8672 37.2891C81.3516 38.2891 80.6641 39.125 79.8047 39.7969C78.9453 40.4844 77.9609 41 76.8516 41.3438C75.7422 41.7031 74.6016 41.8828 73.4297 41.8828C72.1641 41.8828 70.9922 41.6641 69.9141 41.2266C68.8359 40.8047 67.8672 40.2266 67.0078 39.4922C66.1484 38.7734 65.3984 37.9375 64.7578 36.9844C64.1172 36.0469 63.6016 35.0703 63.2109 34.0547L63.5625 33.8672C64.0312 34.6953 64.5703 35.5078 65.1797 36.3047C65.7891 37.1172 66.4766 37.8359 67.2422 38.4609C68.0078 39.1016 68.8516 39.6172 69.7734 40.0078C70.7109 40.3984 71.7266 40.5938 72.8203 40.5938C73.7109 40.5938 74.5391 40.4688 75.3047 40.2188C76.0703 39.9688 76.7344 39.6094 77.2969 39.1406C77.8594 38.6719 78.2969 38.0938 78.6094 37.4062C78.9375 36.7188 79.1016 35.9375 79.1016 35.0625C79.1016 33.7812 78.8281 32.7266 78.2812 31.8984C77.7344 31.0703 77.0156 30.3672 76.125 29.7891C75.2344 29.2109 74.2188 28.7188 73.0781 28.3125C71.9375 27.9062 70.7656 27.5 69.5625 27.0938C68.375 26.6719 67.2109 26.2031 66.0703 25.6875C64.9297 25.1562 63.9141 24.4922 63.0234 23.6953C62.1328 22.8984 61.4141 21.9141 60.8672 20.7422C60.3203 19.5547 60.0469 18.1016 60.0469 16.3828C60.0469 14.8203 60.2891 13.3516 60.7734 11.9766C61.2578 10.5859 61.9219 9.3125 62.7656 8.15625C63.625 7 64.6328 5.96875 65.7891 5.0625C66.9453 4.14063 68.1875 3.35937 69.5156 2.71875C70.8594 2.07813 72.2578 1.59375 73.7109 1.26562C75.1641 0.921875 76.625 0.75 78.0938 0.75C79.1406 0.75 80.125 0.875 81.0469 1.125C81.9844 1.375 82.7891 1.76562 83.4609 2.29688C84.1484 2.8125 84.6875 3.48438 85.0781 4.3125C85.4844 5.14062 85.6875 6.125 85.6875 7.26562ZM100.5 24.7031C100.5 25.5781 100.328 26.4922 99.9844 27.4453C99.6562 28.3828 99.1953 29.2422 98.6016 30.0234C98.0078 30.8047 97.2969 31.4531 96.4688 31.9688C95.6562 32.4688 94.7656 32.7188 93.7969 32.7188C93.4531 32.7188 93.1016 32.6641 92.7422 32.5547C92.3984 32.4297 92.0781 32.2578 91.7812 32.0391C91.5 31.8047 91.2656 31.5312 91.0781 31.2188C90.9062 30.9062 90.8203 30.5547 90.8203 30.1641C90.8203 29.9766 90.8984 29.8203 91.0547 29.6953C91.2109 29.5547 91.3828 29.4844 91.5703 29.4844C91.8047 29.4844 92 29.6016 92.1562 29.8359C92.3281 30.0703 92.5078 30.3281 92.6953 30.6094C92.8984 30.875 93.1328 31.125 93.3984 31.3594C93.6797 31.5938 94.0469 31.7109 94.5 31.7109C95.0625 31.7109 95.5625 31.5234 96 31.1484C96.4375 30.7578 96.8047 30.2891 97.1016 29.7422C97.3984 29.1953 97.625 28.6172 97.7812 28.0078C97.9375 27.3828 98.0156 26.8359 98.0156 26.3672C98.0156 25.7734 97.9375 25.1875 97.7812 24.6094C97.625 24.0312 97.3828 23.5234 97.0547 23.0859C96.7422 22.6328 96.3359 22.2734 95.8359 22.0078C95.3516 21.7266 94.7812 21.5859 94.125 21.5859C93.3594 21.5859 92.7109 21.8438 92.1797 22.3594C91.6641 22.875 91.2344 23.5391 90.8906 24.3516C90.5625 25.1484 90.3047 26.0469 90.1172 27.0469C89.9453 28.0469 89.8125 29.0391 89.7188 30.0234C89.6406 30.9922 89.5938 31.8906 89.5781 32.7188C89.5625 33.5469 89.5547 34.2031 89.5547 34.6875C89.5547 36.9531 89.4922 38.9922 89.3672 40.8047C89.2422 42.6328 89.0703 44.2812 88.8516 45.75C88.6328 47.2188 88.375 48.5156 88.0781 49.6406C87.7812 50.7812 87.4609 51.7969 87.1172 52.6875H86.5312V41.4844C86.5312 38.0625 86.4688 34.6641 86.3438 31.2891C86.2188 27.8984 86.1562 24.4844 86.1562 21.0469C86.1562 20.6875 86.2266 20.3906 86.3672 20.1562C86.5234 19.9062 86.7188 19.7031 86.9531 19.5469C87.2031 19.3906 87.4844 19.2812 87.7969 19.2188C88.1094 19.1562 88.4297 19.125 88.7578 19.125C88.8516 19.125 89.0078 19.1484 89.2266 19.1953C89.4453 19.2266 89.5547 19.3125 89.5547 19.4531C89.5547 20.5469 89.5469 21.625 89.5312 22.6875C89.5156 23.75 89.4922 24.8203 89.4609 25.8984C89.6797 25.1484 89.9609 24.375 90.3047 23.5781C90.6484 22.7656 91.0703 22.0312 91.5703 21.375C92.0703 20.7188 92.6641 20.1797 93.3516 19.7578C94.0391 19.3359 94.8438 19.125 95.7656 19.125C96.5469 19.125 97.2266 19.2812 97.8047 19.5938C98.3984 19.9062 98.8906 20.3203 99.2812 20.8359C99.6875 21.3516 99.9922 21.9453 100.195 22.6172C100.398 23.2891 100.5 23.9844 100.5 24.7031ZM113.109 20.7188C113.109 20.8906 113.047 21.0469 112.922 21.1875C112.797 21.3125 112.648 21.375 112.477 21.375C112.336 21.375 112.188 21.3359 112.031 21.2578C111.875 21.1641 111.695 21.0625 111.492 20.9531C111.305 20.8438 111.078 20.75 110.812 20.6719C110.562 20.5781 110.273 20.5312 109.945 20.5312C109.18 20.5312 108.492 20.7734 107.883 21.2578C107.289 21.7266 106.781 22.3125 106.359 23.0156C105.953 23.7188 105.641 24.4688 105.422 25.2656C105.203 26.0625 105.094 26.7812 105.094 27.4219C105.094 27.875 105.133 28.3203 105.211 28.7578C105.289 29.1797 105.422 29.5703 105.609 29.9297C105.812 30.2734 106.086 30.5547 106.43 30.7734C106.773 30.9766 107.211 31.0781 107.742 31.0781C108.305 31.0781 108.844 30.9766 109.359 30.7734C109.875 30.5547 110.359 30.2734 110.812 29.9297C110.828 29.4297 110.906 28.9062 111.047 28.3594C111.203 27.7969 111.398 27.25 111.633 26.7188C111.867 26.1719 112.133 25.6562 112.43 25.1719C112.742 24.6875 113.062 24.2578 113.391 23.8828L113.695 24.0703C113.523 24.6016 113.398 25.1484 113.32 25.7109C113.242 26.2734 113.203 26.8281 113.203 27.375C113.203 27.9375 113.25 28.4688 113.344 28.9688C113.438 29.4688 113.602 29.9062 113.836 30.2812C114.07 30.6406 114.391 30.9297 114.797 31.1484C115.203 31.3516 115.727 31.4531 116.367 31.4531C117.148 31.4531 117.867 31.2734 118.523 30.9141C119.18 30.5547 119.758 30.1016 120.258 29.5547L120.445 29.6484C120.164 30.1953 119.797 30.7188 119.344 31.2188C118.891 31.7188 118.383 32.1719 117.82 32.5781C117.273 32.9688 116.688 33.2812 116.062 33.5156C115.438 33.75 114.82 33.8672 114.211 33.8672C113.352 33.8672 112.648 33.6172 112.102 33.1172C111.555 32.6328 111.18 32.0156 110.977 31.2656C110.32 31.9219 109.586 32.4766 108.773 32.9297C107.977 33.3672 107.133 33.5859 106.242 33.5859C105.586 33.5859 105 33.4609 104.484 33.2109C103.984 32.9766 103.562 32.6562 103.219 32.25C102.875 31.8438 102.609 31.3672 102.422 30.8203C102.25 30.2578 102.164 29.6719 102.164 29.0625C102.164 28.3594 102.273 27.6406 102.492 26.9062C102.727 26.1562 103.039 25.4219 103.43 24.7031C103.836 23.9844 104.312 23.3047 104.859 22.6641C105.406 22.0234 106 21.4609 106.641 20.9766C107.297 20.4922 107.984 20.1094 108.703 19.8281C109.422 19.5469 110.156 19.4062 110.906 19.4062C111.078 19.4062 111.289 19.4297 111.539 19.4766C111.789 19.5078 112.031 19.5703 112.266 19.6641C112.5 19.7578 112.695 19.8906 112.852 20.0625C113.023 20.2344 113.109 20.4531 113.109 20.7188ZM134.109 29.6484C133.703 30.3203 133.172 30.9219 132.516 31.4531C131.875 31.9688 131.164 32.4141 130.383 32.7891C129.617 33.1484 128.812 33.4219 127.969 33.6094C127.141 33.8125 126.344 33.9141 125.578 33.9141C124.641 33.9141 123.766 33.7734 122.953 33.4922C122.156 33.2109 121.453 32.8047 120.844 32.2734C120.25 31.7266 119.781 31.0781 119.438 30.3281C119.109 29.5625 118.945 28.6953 118.945 27.7266C118.945 26.6328 119.141 25.5625 119.531 24.5156C119.938 23.4688 120.492 22.5391 121.195 21.7266C121.914 20.9141 122.758 20.2656 123.727 19.7812C124.711 19.2812 125.773 19.0312 126.914 19.0312C127.289 19.0312 127.664 19.0703 128.039 19.1484C128.414 19.2266 128.758 19.3594 129.07 19.5469C129.383 19.7188 129.633 19.9531 129.82 20.25C130.023 20.5469 130.125 20.9219 130.125 21.375C130.125 21.8281 130.008 22.2266 129.773 22.5703C129.539 22.8984 129.242 23.1719 128.883 23.3906C128.523 23.6094 128.133 23.7891 127.711 23.9297C127.305 24.0547 126.914 24.1484 126.539 24.2109V23.8828C126.758 23.8203 126.992 23.7344 127.242 23.625C127.508 23.5156 127.75 23.375 127.969 23.2031C128.188 23.0312 128.367 22.8281 128.508 22.5938C128.664 22.3594 128.742 22.1016 128.742 21.8203C128.742 21.6016 128.688 21.4219 128.578 21.2812C128.484 21.125 128.359 21 128.203 20.9062C128.062 20.8125 127.898 20.7422 127.711 20.6953C127.523 20.6484 127.336 20.625 127.148 20.625C126.352 20.625 125.633 20.8047 124.992 21.1641C124.367 21.5078 123.836 21.9688 123.398 22.5469C122.961 23.125 122.625 23.7734 122.391 24.4922C122.172 25.2109 122.062 25.9375 122.062 26.6719C122.062 27.5156 122.188 28.2734 122.438 28.9453C122.703 29.6016 123.07 30.1641 123.539 30.6328C124.008 31.1016 124.578 31.4609 125.25 31.7109C125.922 31.9609 126.672 32.0859 127.5 32.0859C128.031 32.0859 128.594 32.0312 129.188 31.9219C129.797 31.7969 130.383 31.625 130.945 31.4062C131.523 31.1875 132.07 30.9219 132.586 30.6094C133.102 30.2969 133.547 29.9453 133.922 29.5547L134.109 29.6484ZM147.891 29.6484C147.484 30.2422 146.992 30.7969 146.414 31.3125C145.852 31.8281 145.227 32.2734 144.539 32.6484C143.867 33.0234 143.156 33.3203 142.406 33.5391C141.672 33.7578 140.93 33.8672 140.18 33.8672C139.117 33.8672 138.125 33.7266 137.203 33.4453C136.281 33.1797 135.477 32.7656 134.789 32.2031C134.102 31.6406 133.562 30.9375 133.172 30.0938C132.781 29.2344 132.586 28.2344 132.586 27.0938C132.586 25.9688 132.789 24.9219 133.195 23.9531C133.617 22.9688 134.188 22.1172 134.906 21.3984C135.641 20.6641 136.5 20.0859 137.484 19.6641C138.469 19.2422 139.523 19.0312 140.648 19.0312C141.18 19.0312 141.672 19.1094 142.125 19.2656C142.594 19.4062 143 19.625 143.344 19.9219C143.688 20.2031 143.953 20.5547 144.141 20.9766C144.344 21.3984 144.445 21.8828 144.445 22.4297C144.445 23.0859 144.312 23.6641 144.047 24.1641C143.781 24.6641 143.43 25.1016 142.992 25.4766C142.555 25.8516 142.055 26.1641 141.492 26.4141C140.945 26.6641 140.367 26.8672 139.758 27.0234C139.164 27.1797 138.57 27.2969 137.977 27.375C137.398 27.4375 136.867 27.4688 136.383 27.4688H135.82C136.023 28.8906 136.586 29.9766 137.508 30.7266C138.43 31.4766 139.703 31.8516 141.328 31.8516C142.484 31.8516 143.609 31.6484 144.703 31.2422C145.812 30.8359 146.812 30.2734 147.703 29.5547L147.891 29.6484ZM135.75 26.7656H136.336C136.898 26.7656 137.477 26.6797 138.07 26.5078C138.664 26.3203 139.195 26.0547 139.664 25.7109C140.148 25.3516 140.547 24.9141 140.859 24.3984C141.172 23.8828 141.328 23.2969 141.328 22.6406C141.328 22 141.188 21.4688 140.906 21.0469C140.641 20.625 140.172 20.4141 139.5 20.4141C138.812 20.4141 138.227 20.625 137.742 21.0469C137.273 21.4531 136.891 21.9609 136.594 22.5703C136.297 23.1641 136.078 23.7969 135.938 24.4688C135.812 25.125 135.75 25.7109 135.75 26.2266V26.7656Z" fill="#C79B18"/>
</svg>
