<svg width="50" height="24" viewBox="0 0 50 24" fill="none" xmlns="http://www.w3.org/2000/svg">
<path d="M0 3C0 1.36565 1.36424 0.0620111 2.99691 0.136223L21.3752 0.971599C21.7248 0.987489 22 1.27553 22 1.62547V4.37453C22 4.72447 21.7248 5.01251 21.3752 5.0284L2.99691 5.86378C1.36424 5.93799 0 4.63435 0 3Z" fill="#C79B18"/>
<path d="M28 1.62547C28 1.27553 28.2752 0.987489 28.6248 0.971599L47.0031 0.136223C48.6358 0.0620111 50 1.36565 50 3C50 4.63435 48.6358 5.93799 47.0031 5.86378L28.6248 5.0284C28.2752 5.01251 28 4.72447 28 4.37453V1.62547Z" fill="#C79B18"/>
<path d="M28 3C28 4.65685 26.6569 6 25 6C23.3431 6 22 4.65685 22 3C22 1.34315 23.3431 0 25 0C26.6569 0 28 1.34315 28 3Z" fill="#C79B18"/>
<path d="M0 12C0 10.3657 1.36424 9.06201 2.99691 9.13622L21.3752 9.9716C21.7248 9.98749 22 10.2755 22 10.6255V13.3745C22 13.7245 21.7248 14.0125 21.3752 14.0284L2.99691 14.8638C1.36424 14.938 0 13.6343 0 12Z" fill="#C79B18"/>
<path d="M28 10.6255C28 10.2755 28.2752 9.98749 28.6248 9.9716L47.003 9.13622C48.6357 9.06201 50 10.3657 50 12C50 13.6343 48.6357 14.938 47.003 14.8638L28.6248 14.0284C28.2752 14.0125 28 13.7245 28 13.3745V10.6255Z" fill="#C79B18"/>
<path d="M28 12C28 13.6569 26.6569 15 25 15C23.3431 15 22 13.6569 22 12C22 10.3431 23.3431 9 25 9C26.6569 9 28 10.3431 28 12Z" fill="#C79B18"/>
<path d="M0 21C0 19.3657 1.36424 18.062 2.99691 18.1362L21.3752 18.9716C21.7248 18.9875 22 19.2755 22 19.6255V22.3745C22 22.7245 21.7248 23.0125 21.3752 23.0284L2.99691 23.8638C1.36424 23.938 0 22.6343 0 21Z" fill="#C79B18"/>
<path d="M28 19.6255C28 19.2755 28.2752 18.9875 28.6248 18.9716L47.003 18.1362C48.6357 18.062 50 19.3657 50 21C50 22.6343 48.6357 23.938 47.003 23.8638L28.6248 23.0284C28.2752 23.0125 28 22.7245 28 22.3745V19.6255Z" fill="#C79B18"/>
<path d="M28 21C28 22.6569 26.6569 24 25 24C23.3431 24 22 22.6569 22 21C22 19.3431 23.3431 18 25 18C26.6569 18 28 19.3431 28 21Z" fill="#C79B18"/>
</svg>
